<?xml version="1.0" standalone="no"?><!DOCTYPE svg PUBLIC "-//W3C//DTD SVG 1.1//EN" "http://www.w3.org/Graphics/SVG/1.1/DTD/svg11.dtd"><svg t="1724238342343" class="icon" viewBox="0 0 1024 1024" version="1.1" xmlns="http://www.w3.org/2000/svg" p-id="4295" xmlns:xlink="http://www.w3.org/1999/xlink" width="200" height="200"><path d="M493.7 247.9c0-1.8 0.3-3.6 0.8-5.3l-299.4-85.7c-7.3-1.8-13-2.5-18.5-2.5-28.7 0-59.6 20.9-59.6 67l0.6 355.4c0 0.7 0.1 1.3 0.2 2v132.8c0 17.4 6.8 49 52.7 63.9L493.7 869V247.9zM211 373.2c3.8-14.1 18.3-22.6 32.4-18.8l178.3 47.4c14.1 3.8 22.6 18.3 18.8 32.4-3.2 11.9-13.9 19.7-25.6 19.7-2.2 0-4.5-0.3-6.8-0.9l-178.3-47.4c-14.1-3.7-22.5-18.3-18.8-32.4z m229.6 254.2c-3.2 11.9-13.9 19.7-25.6 19.7-2.2 0-4.5-0.3-6.8-0.9l-178.3-47.4c-14.1-3.8-22.6-18.3-18.8-32.4 3.8-14.1 18.3-22.5 32.4-18.8L421.8 595c14.2 3.8 22.6 18.3 18.8 32.4zM849.4 154.3c-5.5 0-11.2 0.7-18.5 2.5l-299.4 85.7c0.5 1.7 0.8 3.4 0.8 5.3V869l323.1-93.5c45.9-14.9 52.7-46.5 52.7-63.9l0.8-490.2c0-46.1-30.9-67.1-59.5-67.1zM806 598.8l-178.4 47.4c-2.3 0.6-4.6 0.9-6.8 0.9-11.7 0-22.5-7.9-25.6-19.7-3.8-14.1 4.7-28.7 18.8-32.4l178.3-47.4c14.1-3.7 28.7 4.7 32.4 18.8 3.8 14.1-4.6 28.7-18.7 32.4z m0-193.2L627.6 453c-2.3 0.6-4.6 0.9-6.8 0.9-11.7 0-22.5-7.9-25.6-19.7-3.8-14.1 4.7-28.7 18.8-32.4l178.3-47.4c14.1-3.7 28.7 4.7 32.4 18.8 3.8 14.1-4.6 28.7-18.7 32.4z" fill="#3259CE" p-id="4296"></path></svg>